PathFileType	4	(X/Y/Z)	/Users/niels/Desktop/University/Third Semester/Perception and Action/Exam/Gymnastics Motion Tracking/Code for Gym Tracking/Analyzed Data/Start Salto/stsalto_bad_id7_1_Sports2D/stsalto_bad_id7_1_Sports2D_px_person00.trc
DataRate	CameraRate	NumFrames	NumMarkers	Units	OrigDataRate	OrigDataStartFrame	OrigNumFrames
29.88505747126437	29.88505747126437	7	22	m	29.88505747126437	32	261
Frame#	Time	Hip			RHip			RKnee			RAnkle			RBigToe			RSmallToe			RHeel			LHip			LKnee			LAnkle			LBigToe			LSmallToe			LHeel			Neck			Head			Nose			RShoulder			RElbow			RWrist			LShoulder			LElbow			LWrist		
		X1	Y1	Z1	X2	Y2	Z2	X3	Y3	Z3	X4	Y4	Z4	X5	Y5	Z5	X6	Y6	Z6	X7	Y7	Z7	X8	Y8	Z8	X9	Y9	Z9	X10	Y10	Z10	X11	Y11	Z11	X12	Y12	Z12	X13	Y13	Z13	X14	Y14	Z14	X15	Y15	Z15	X16	Y16	Z16	X17	Y17	Z17	X18	Y18	Z18	X19	Y19	Z19	X20	Y20	Z20	X21	Y21	Z21	X22	Y22	Z22
32	1.0707692307692307	0.0018680095347016227	-0.5371542446395767	0.0	0.0018049948746062376	-0.54754594889746	0.0	0.05506805240932808	-0.6328026709624442	0.0	-0.002780715724017491	-0.752525111017021	0.0	0.032384544199196515	-0.7814697518919694	0.0	0.02380891451910816	-0.7822419448700123	0.0	-0.009074737754262884	-0.7681783228193093	0.0	-0.0005356858612630551	-0.5467657698322733	0.0	0.05584627734165677	-0.6328091880757738	0.0	-0.0028012784403157907	-0.7525180128700292	0.0	0.04179658186197972	-0.7830364547484064	0.0	0.0300718747896819	-0.7783400995130924	0.0	-0.009856748155602384	-0.7744206520663971	0.0	-0.015644159049895474	-0.3634536406447719	0.0	0.023111160001432242	-0.5352582412216984	0.0	0.0026942146703540517	-0.31847273771752954	0.0	0.006016341578090369	-0.39511288593979255	0.0	0.011018881196303105	-0.48843102658040555	0.0	0.01288551733932743	-0.5422058845328993	0.0	0.0060249929032073326	-0.39844805750682016	0.0	0.0026941488188734096	-0.4884309597264972	0.0	0.011974097098659554	-0.5389583533832177	0.0
33	1.1042307692307691	0.0018737201429062623	-0.5371510385561143	0.0	0.0018000010540792934	-0.5475457799839103	0.0	0.055032920752701026	-0.6328190776592009	0.0	-0.0027811389363248972	-0.7525392013447609	0.0	0.03229739967472216	-0.7814667885117417	0.0	0.02375769363692201	-0.7822354786433965	0.0	-0.009063144688710922	-0.7681821033785166	0.0	-0.0005388232904838183	-0.5467661524635209	0.0	0.055837675232108655	-0.6328206495316062	0.0	-0.0028026621266555563	-0.7525304822163781	0.0	0.041759636038449836	-0.783031646169663	0.0	0.03000742103644114	-0.7783375616007285	0.0	-0.00984071684555793	-0.774446838166654	0.0	-0.01563638970699837	-0.3634423490411145	0.0	0.023119393838878777	-0.5352100417305754	0.0	0.0027124403442743282	-0.3184691711434012	0.0	0.006015034224832127	-0.3950995440782871	0.0	0.011019999722589298	-0.48840893210220004	0.0	0.012890842800531656	-0.5422554240356322	0.0	0.0060358095565938175	-0.39843675491630925	0.0	0.0027053491856686936	-0.48841729404718526	0.0	0.011987292161264013	-0.5389253330157513	0.0
34	1.1376923076923076	0.001889946376077513	-0.5371717720181961	0.0	0.0017843842708981934	-0.5475671509072103	0.0	0.054921230586925676	-0.6328801952328994	0.0	-0.002859392992105102	-0.752578071256768	0.0	0.03209127756008866	-0.7814762313940233	0.0	0.02359559083091798	-0.7822453436923374	0.0	-0.009096954864101305	-0.7681982599229347	0.0	-0.0005552570630124568	-0.5467871008243784	0.0	0.05577558696422286	-0.6328687599723785	0.0	-0.0028691746175172166	-0.7525711244649869	0.0	0.04162647606864007	-0.7830364743791277	0.0	0.029819025411895426	-0.7783480053937029	0.0	-0.009866877620327022	-0.7745132255838425	0.0	-0.015624326492491241	-0.36342746465897363	0.0	0.023164208453143244	-0.5354312144628605	0.0	0.0027367789334440456	-0.3184626496251924	0.0	0.006011615035503992	-0.39508083066151906	0.0	0.01101841364642876	-0.4883697731874759	0.0	0.012899472119713954	-0.5424249665466886	0.0	0.00604818096473019	-0.3984199151779991	0.0	0.002717304191623538	-0.48839308800513687	0.0	0.012004523937636534	-0.5388768925596794	0.0
35	1.171153846153846	0.0019210403931524552	-0.5372369462483737	0.0	0.001753241324212094	-0.5476267327070781	0.0	0.05469708410685789	-0.6330096751055304	0.0	-0.0030750405286083284	-0.7526515623090301	0.0	0.031731664045076456	-0.7815095559030052	0.0	0.023270835633501734	-0.7822883226567934	0.0	-0.00921865361004201	-0.7682338364713753	0.0	-0.0005931591749102906	-0.5468441765161427	0.0	0.0556245130091572	-0.6329742049128525	0.0	-0.003049984949247288	-0.7526534496099161	0.0	0.04134727795939577	-0.7830614915497768	0.0	0.029453525924793972	-0.7783830705779773	0.0	-0.00997814793940694	-0.7746336064724646	0.0	-0.015609746422767048	-0.363413605810199	0.0	0.02326834659864669	-0.5361603676764296	0.0	0.002760017358402381	-0.31845323252494573	0.0	0.006005314881894357	-0.39506133652914766	0.0	0.011011312461678626	-0.48831487175800137	0.0	0.012910464524763408	-0.5427743941710519	0.0	0.006056232350475014	-0.39840066888127407	0.0	0.0027232730927378135	-0.488359170125803	0.0	0.012020271264787013	-0.5388227597039421	0.0
36	1.2046153846153844	0.001967827087245026	-0.5373671768786019	0.0	0.0017048427769077888	-0.5477399345756528	0.0	0.05434702516493149	-0.6332201282544297	0.0	-0.0034825652926586486	-0.7527608858388996	0.0	0.03123527759109878	-0.781578950938958	0.0	0.02276433068365289	-0.7823834266235236	0.0	-0.009473713471459661	-0.7682932033849489	0.0	-0.0006582936184291019	-0.5469514630242432	0.0	0.05535662083600221	-0.6331496186482038	0.0	-0.003389494761248853	-0.7527829398714866	0.0	0.040896799990657054	-0.7831190638288703	0.0	0.028897900258717607	-0.7784548605834085	0.0	-0.010222863635558658	-0.7748060999698576	0.0	-0.015598599370685568	-0.3634112898991158	0.0	0.023448126076146054	-0.5376434897791841	0.0	0.002765401246152929	-0.31844295629592156	0.0	0.00599615366878829	-0.39505269316036506	0.0	0.010995492659662556	-0.4882577199716817	0.0	0.012919996429396032	-0.5433311905877805	0.0	0.006048555947994439	-0.39838817279691685	0.0	0.0027108393512423586	-0.4883238954738033	0.0	0.01202212957040194	-0.5387902202403242	0.0
37	1.238076923076923	0.002022047473392731	-0.5375698816195541	0.0	0.0016462779618841236	-0.5479090369461043	0.0	0.053920757277148665	-0.6334891775356614	0.0	-0.004088535144185667	-0.7528855549561825	0.0	0.030732017612049977	-0.7816903668450431	0.0	0.022148610962912593	-0.7825426387378517	0.0	-0.009885121042126643	-0.7683713975499395	0.0	-0.0007468235254267931	-0.5471102576982042	0.0	0.05498084328003112	-0.6333798734227701	0.0	-0.0038915343966681283	-0.7529420470542532	0.0	0.04032584913451981	-0.7832178687318304	0.0	0.028244875131930764	-0.7785686910347135	0.0	-0.010630892458760364	-0.7749920871754962	0.0	-0.015603054795622752	-0.3634384501805019	0.0	0.023693634554074774	-0.5399836610314767	0.0	0.0027240139397316605	-0.31843731574322426	0.0	0.00598604970027303	-0.3950759850526955	0.0	0.0109688926160607	-0.4882324731024297	0.0	0.012919759938300203	-0.5440263909580433	0.0	0.006007796987303957	-0.3984001967715562	0.0	0.0026619528515042946	-0.48830839078543686	0.0	0.011989127469325575	-0.5388312590428315	0.0
38	1.2715384615384615	0.0020588354853202	-0.5378156581304019	0.0	0.0016013656008658898	-0.5481030256422571	0.0	0.0535884985279074	-0.6337243145463186	0.0	-0.004779150109551259	-0.7529659103632514	0.0	0.030541054471046394	-0.781830751893557	0.0	0.021670776848664156	-0.782753084569737	0.0	-0.010406366530139207	-0.7684440898373761	0.0	-0.0008341621264339032	-0.5472900358494669	0.0	0.05458933741533144	-0.6335924767242094	0.0	-0.004459147758306106	-0.7530689025373406	0.0	0.039836248976316165	-0.7833519762517638	0.0	0.027782741936736122	-0.7787099598216431	0.0	-0.011167841187312729	-0.7750891949690673	0.0	-0.015642394555909787	-0.3635192628113271	0.0	0.023937896995030523	-0.5428703940691297	0.0	0.0025963769046869834	-0.3184465918392598	0.0	0.005980266229675623	-0.3951614148275465	0.0	0.01093356443599836	-0.4883010171854587	0.0	0.012896014368056803	-0.5446024644348346	0.0	0.005913537916913031	-0.3984637606071955	0.0	0.002556714464000641	-0.48835091265448943	0.0	0.011893248325759758	-0.539023714728802	0.0
